<mxfile host="Electron" agent="Mozilla/5.0 (Windows NT 10.0; Win64; x64) AppleWebKit/537.36 (KHTML, like Gecko) draw.io/24.7.17 Chrome/128.0.6613.36 Electron/32.0.1 Safari/537.36" version="24.7.17">
  <diagram name="Pagina-1" id="n3kyaf5lCKR79CFoZ7SA">
    <mxGraphModel dx="1638" dy="470" grid="1" gridSize="10" guides="1" tooltips="1" connect="1" arrows="1" fold="1" page="1" pageScale="1" pageWidth="827" pageHeight="1169" math="1" shadow="0">
      <root>
        <mxCell id="0" />
        <mxCell id="1" parent="0" />
        <mxCell id="JPz8NDeNLQ0WTbV580v9-1" value="" style="ellipse;whiteSpace=wrap;html=1;aspect=fixed;fillColor=none;" vertex="1" parent="1">
          <mxGeometry x="300" y="240" width="40" height="40" as="geometry" />
        </mxCell>
        <mxCell id="JPz8NDeNLQ0WTbV580v9-2" style="edgeStyle=orthogonalEdgeStyle;rounded=0;orthogonalLoop=1;jettySize=auto;html=1;entryX=0.5;entryY=0;entryDx=0;entryDy=0;" edge="1" parent="1" source="JPz8NDeNLQ0WTbV580v9-3" target="JPz8NDeNLQ0WTbV580v9-1">
          <mxGeometry relative="1" as="geometry" />
        </mxCell>
        <mxCell id="JPz8NDeNLQ0WTbV580v9-3" value="" style="rounded=0;whiteSpace=wrap;html=1;fillColor=#000000;rotation=-180;" vertex="1" parent="1">
          <mxGeometry x="305" y="200" width="30" height="10" as="geometry" />
        </mxCell>
        <mxCell id="JPz8NDeNLQ0WTbV580v9-4" style="edgeStyle=orthogonalEdgeStyle;rounded=1;orthogonalLoop=1;jettySize=auto;html=1;entryX=0.5;entryY=1;entryDx=0;entryDy=0;curved=0;" edge="1" parent="1" source="JPz8NDeNLQ0WTbV580v9-5" target="JPz8NDeNLQ0WTbV580v9-3">
          <mxGeometry relative="1" as="geometry">
            <Array as="points">
              <mxPoint x="250" y="180" />
              <mxPoint x="320" y="180" />
            </Array>
          </mxGeometry>
        </mxCell>
        <mxCell id="JPz8NDeNLQ0WTbV580v9-5" value="" style="ellipse;whiteSpace=wrap;html=1;aspect=fixed;fillColor=none;" vertex="1" parent="1">
          <mxGeometry x="230" y="240" width="40" height="40" as="geometry" />
        </mxCell>
        <mxCell id="JPz8NDeNLQ0WTbV580v9-6" style="edgeStyle=orthogonalEdgeStyle;rounded=0;orthogonalLoop=1;jettySize=auto;html=1;entryX=0.5;entryY=0;entryDx=0;entryDy=0;" edge="1" parent="1" source="JPz8NDeNLQ0WTbV580v9-8" target="JPz8NDeNLQ0WTbV580v9-13">
          <mxGeometry relative="1" as="geometry" />
        </mxCell>
        <mxCell id="JPz8NDeNLQ0WTbV580v9-7" style="edgeStyle=orthogonalEdgeStyle;rounded=1;orthogonalLoop=1;jettySize=auto;html=1;entryX=0.5;entryY=1;entryDx=0;entryDy=0;exitX=0.75;exitY=0;exitDx=0;exitDy=0;curved=0;" edge="1" parent="1" source="JPz8NDeNLQ0WTbV580v9-8" target="JPz8NDeNLQ0WTbV580v9-5">
          <mxGeometry relative="1" as="geometry">
            <Array as="points">
              <mxPoint x="348" y="330" />
              <mxPoint x="250" y="330" />
            </Array>
          </mxGeometry>
        </mxCell>
        <mxCell id="JPz8NDeNLQ0WTbV580v9-8" value="" style="rounded=0;whiteSpace=wrap;html=1;fillColor=#000000;rotation=-180;" vertex="1" parent="1">
          <mxGeometry x="340" y="310" width="30" height="10" as="geometry" />
        </mxCell>
        <mxCell id="JPz8NDeNLQ0WTbV580v9-9" value="" style="ellipse;whiteSpace=wrap;html=1;aspect=fixed;fillColor=none;" vertex="1" parent="1">
          <mxGeometry x="370" y="240" width="40" height="40" as="geometry" />
        </mxCell>
        <mxCell id="JPz8NDeNLQ0WTbV580v9-10" value="" style="endArrow=classic;html=1;rounded=0;exitX=1;exitY=1;exitDx=0;exitDy=0;entryX=0.75;entryY=1;entryDx=0;entryDy=0;" edge="1" parent="1" source="JPz8NDeNLQ0WTbV580v9-1" target="JPz8NDeNLQ0WTbV580v9-8">
          <mxGeometry width="50" height="50" relative="1" as="geometry">
            <mxPoint x="330" y="330" as="sourcePoint" />
            <mxPoint x="380" y="280" as="targetPoint" />
          </mxGeometry>
        </mxCell>
        <mxCell id="JPz8NDeNLQ0WTbV580v9-11" value="" style="endArrow=classic;html=1;rounded=0;exitX=0;exitY=1;exitDx=0;exitDy=0;entryX=0.25;entryY=1;entryDx=0;entryDy=0;" edge="1" parent="1" source="JPz8NDeNLQ0WTbV580v9-9" target="JPz8NDeNLQ0WTbV580v9-8">
          <mxGeometry width="50" height="50" relative="1" as="geometry">
            <mxPoint x="344" y="284" as="sourcePoint" />
            <mxPoint x="358" y="320" as="targetPoint" />
          </mxGeometry>
        </mxCell>
        <mxCell id="JPz8NDeNLQ0WTbV580v9-12" style="edgeStyle=orthogonalEdgeStyle;rounded=0;orthogonalLoop=1;jettySize=auto;html=1;entryX=0.5;entryY=1;entryDx=0;entryDy=0;" edge="1" parent="1" source="JPz8NDeNLQ0WTbV580v9-13" target="JPz8NDeNLQ0WTbV580v9-15">
          <mxGeometry relative="1" as="geometry" />
        </mxCell>
        <mxCell id="JPz8NDeNLQ0WTbV580v9-13" value="" style="ellipse;whiteSpace=wrap;html=1;aspect=fixed;fillColor=none;" vertex="1" parent="1">
          <mxGeometry x="335" y="350" width="40" height="40" as="geometry" />
        </mxCell>
        <mxCell id="JPz8NDeNLQ0WTbV580v9-14" style="edgeStyle=orthogonalEdgeStyle;rounded=1;orthogonalLoop=1;jettySize=auto;html=1;entryX=1;entryY=0.5;entryDx=0;entryDy=0;curved=0;" edge="1" parent="1" source="JPz8NDeNLQ0WTbV580v9-15" target="JPz8NDeNLQ0WTbV580v9-9">
          <mxGeometry relative="1" as="geometry">
            <Array as="points">
              <mxPoint x="355" y="440" />
              <mxPoint x="430" y="440" />
              <mxPoint x="430" y="260" />
            </Array>
          </mxGeometry>
        </mxCell>
        <mxCell id="JPz8NDeNLQ0WTbV580v9-15" value="" style="rounded=0;whiteSpace=wrap;html=1;fillColor=#000000;rotation=-180;" vertex="1" parent="1">
          <mxGeometry x="340" y="420" width="30" height="10" as="geometry" />
        </mxCell>
        <mxCell id="JPz8NDeNLQ0WTbV580v9-16" value="" style="ellipse;whiteSpace=wrap;html=1;aspect=fixed;fillColor=#000000;" vertex="1" parent="1">
          <mxGeometry x="315" y="255" width="10" height="10" as="geometry" />
        </mxCell>
        <mxCell id="JPz8NDeNLQ0WTbV580v9-17" value="" style="ellipse;whiteSpace=wrap;html=1;aspect=fixed;fillColor=#000000;" vertex="1" parent="1">
          <mxGeometry x="385" y="255" width="10" height="10" as="geometry" />
        </mxCell>
        <mxCell id="JPz8NDeNLQ0WTbV580v9-18" value="\(p_4\)" style="text;html=1;align=center;verticalAlign=middle;whiteSpace=wrap;rounded=0;" vertex="1" parent="1">
          <mxGeometry x="200" y="247.5" width="30" height="25" as="geometry" />
        </mxCell>
        <mxCell id="JPz8NDeNLQ0WTbV580v9-19" value="\(t_1\)" style="text;html=1;align=center;verticalAlign=middle;whiteSpace=wrap;rounded=0;" vertex="1" parent="1">
          <mxGeometry x="335" y="192.5" width="30" height="25" as="geometry" />
        </mxCell>
        <mxCell id="JPz8NDeNLQ0WTbV580v9-20" value="\(t_2\)" style="text;html=1;align=center;verticalAlign=middle;whiteSpace=wrap;rounded=0;" vertex="1" parent="1">
          <mxGeometry x="370" y="302.5" width="30" height="25" as="geometry" />
        </mxCell>
        <mxCell id="JPz8NDeNLQ0WTbV580v9-21" value="\(t_3\)" style="text;html=1;align=center;verticalAlign=middle;whiteSpace=wrap;rounded=0;" vertex="1" parent="1">
          <mxGeometry x="370" y="412.5" width="30" height="25" as="geometry" />
        </mxCell>
        <mxCell id="JPz8NDeNLQ0WTbV580v9-22" value="\(p_3\)" style="text;html=1;align=center;verticalAlign=middle;whiteSpace=wrap;rounded=0;" vertex="1" parent="1">
          <mxGeometry x="380" y="357.5" width="30" height="25" as="geometry" />
        </mxCell>
        <mxCell id="JPz8NDeNLQ0WTbV580v9-23" value="\(p_2\)" style="text;html=1;align=center;verticalAlign=middle;whiteSpace=wrap;rounded=0;" vertex="1" parent="1">
          <mxGeometry x="395" y="217.5" width="30" height="25" as="geometry" />
        </mxCell>
        <mxCell id="JPz8NDeNLQ0WTbV580v9-24" value="\(p_1\)" style="text;html=1;align=center;verticalAlign=middle;whiteSpace=wrap;rounded=0;" vertex="1" parent="1">
          <mxGeometry x="280" y="247.5" width="20" height="25" as="geometry" />
        </mxCell>
        <mxCell id="JPz8NDeNLQ0WTbV580v9-27" style="edgeStyle=orthogonalEdgeStyle;rounded=0;orthogonalLoop=1;jettySize=auto;html=1;" edge="1" parent="1" source="JPz8NDeNLQ0WTbV580v9-25">
          <mxGeometry relative="1" as="geometry">
            <mxPoint x="605" y="249.98" as="targetPoint" />
          </mxGeometry>
        </mxCell>
        <mxCell id="JPz8NDeNLQ0WTbV580v9-25" value="\(\begin{bmatrix} 0&amp;amp; 1 &amp;amp; 0 &amp;amp; 1&amp;nbsp; \end{bmatrix}\)" style="text;html=1;align=center;verticalAlign=middle;whiteSpace=wrap;rounded=0;" vertex="1" parent="1">
          <mxGeometry x="560" y="189.98" width="90" height="20" as="geometry" />
        </mxCell>
        <mxCell id="JPz8NDeNLQ0WTbV580v9-84" style="edgeStyle=orthogonalEdgeStyle;rounded=0;orthogonalLoop=1;jettySize=auto;html=1;entryX=0.5;entryY=0;entryDx=0;entryDy=0;" edge="1" parent="1" source="JPz8NDeNLQ0WTbV580v9-28" target="JPz8NDeNLQ0WTbV580v9-32">
          <mxGeometry relative="1" as="geometry" />
        </mxCell>
        <mxCell id="JPz8NDeNLQ0WTbV580v9-28" value="\(\begin{bmatrix} 1&amp;amp; 1 &amp;amp; 0 &amp;amp; 0&amp;nbsp; \end{bmatrix}\)" style="text;html=1;align=center;verticalAlign=middle;whiteSpace=wrap;rounded=0;" vertex="1" parent="1">
          <mxGeometry x="560" y="249.98" width="90" height="20" as="geometry" />
        </mxCell>
        <mxCell id="JPz8NDeNLQ0WTbV580v9-29" value="\(t_1\)" style="text;html=1;align=center;verticalAlign=middle;whiteSpace=wrap;rounded=0;" vertex="1" parent="1">
          <mxGeometry x="610" y="219.98" width="30" height="25" as="geometry" />
        </mxCell>
        <mxCell id="JPz8NDeNLQ0WTbV580v9-32" value="\(\begin{bmatrix} 0&amp;amp; 0 &amp;amp; 1 &amp;amp; 1&amp;nbsp; \end{bmatrix}\)" style="text;html=1;align=center;verticalAlign=middle;whiteSpace=wrap;rounded=0;" vertex="1" parent="1">
          <mxGeometry x="560" y="309.98" width="90" height="20" as="geometry" />
        </mxCell>
        <mxCell id="JPz8NDeNLQ0WTbV580v9-33" value="\(t_2\)" style="text;html=1;align=center;verticalAlign=middle;whiteSpace=wrap;rounded=0;" vertex="1" parent="1">
          <mxGeometry x="610" y="279.98" width="30" height="25" as="geometry" />
        </mxCell>
        <mxCell id="JPz8NDeNLQ0WTbV580v9-58" value="" style="ellipse;whiteSpace=wrap;html=1;aspect=fixed;fillColor=none;" vertex="1" parent="1">
          <mxGeometry x="50" y="239.98" width="40" height="40" as="geometry" />
        </mxCell>
        <mxCell id="JPz8NDeNLQ0WTbV580v9-59" style="edgeStyle=orthogonalEdgeStyle;rounded=0;orthogonalLoop=1;jettySize=auto;html=1;entryX=0.5;entryY=0;entryDx=0;entryDy=0;" edge="1" parent="1" source="JPz8NDeNLQ0WTbV580v9-60" target="JPz8NDeNLQ0WTbV580v9-58">
          <mxGeometry relative="1" as="geometry" />
        </mxCell>
        <mxCell id="JPz8NDeNLQ0WTbV580v9-60" value="" style="rounded=0;whiteSpace=wrap;html=1;fillColor=#000000;rotation=-180;" vertex="1" parent="1">
          <mxGeometry x="55" y="199.98" width="30" height="10" as="geometry" />
        </mxCell>
        <mxCell id="JPz8NDeNLQ0WTbV580v9-61" style="edgeStyle=orthogonalEdgeStyle;rounded=1;orthogonalLoop=1;jettySize=auto;html=1;entryX=0.5;entryY=1;entryDx=0;entryDy=0;curved=0;" edge="1" parent="1" source="JPz8NDeNLQ0WTbV580v9-62" target="JPz8NDeNLQ0WTbV580v9-60">
          <mxGeometry relative="1" as="geometry">
            <Array as="points">
              <mxPoint y="179.98" />
              <mxPoint x="70" y="179.98" />
            </Array>
          </mxGeometry>
        </mxCell>
        <mxCell id="JPz8NDeNLQ0WTbV580v9-62" value="" style="ellipse;whiteSpace=wrap;html=1;aspect=fixed;fillColor=none;" vertex="1" parent="1">
          <mxGeometry x="-20" y="239.98" width="40" height="40" as="geometry" />
        </mxCell>
        <mxCell id="JPz8NDeNLQ0WTbV580v9-63" style="edgeStyle=orthogonalEdgeStyle;rounded=0;orthogonalLoop=1;jettySize=auto;html=1;entryX=0.5;entryY=0;entryDx=0;entryDy=0;" edge="1" parent="1" source="JPz8NDeNLQ0WTbV580v9-65" target="JPz8NDeNLQ0WTbV580v9-70">
          <mxGeometry relative="1" as="geometry" />
        </mxCell>
        <mxCell id="JPz8NDeNLQ0WTbV580v9-64" style="edgeStyle=orthogonalEdgeStyle;rounded=1;orthogonalLoop=1;jettySize=auto;html=1;entryX=0.5;entryY=1;entryDx=0;entryDy=0;exitX=0.75;exitY=0;exitDx=0;exitDy=0;curved=0;" edge="1" parent="1" source="JPz8NDeNLQ0WTbV580v9-65" target="JPz8NDeNLQ0WTbV580v9-62">
          <mxGeometry relative="1" as="geometry">
            <Array as="points">
              <mxPoint x="98" y="329.97999999999996" />
              <mxPoint y="329.97999999999996" />
            </Array>
          </mxGeometry>
        </mxCell>
        <mxCell id="JPz8NDeNLQ0WTbV580v9-65" value="" style="rounded=0;whiteSpace=wrap;html=1;fillColor=#000000;rotation=-180;" vertex="1" parent="1">
          <mxGeometry x="90" y="309.97999999999996" width="30" height="10" as="geometry" />
        </mxCell>
        <mxCell id="JPz8NDeNLQ0WTbV580v9-66" value="" style="ellipse;whiteSpace=wrap;html=1;aspect=fixed;fillColor=none;" vertex="1" parent="1">
          <mxGeometry x="120" y="239.98" width="40" height="40" as="geometry" />
        </mxCell>
        <mxCell id="JPz8NDeNLQ0WTbV580v9-67" value="" style="endArrow=classic;html=1;rounded=0;exitX=1;exitY=1;exitDx=0;exitDy=0;entryX=0.75;entryY=1;entryDx=0;entryDy=0;" edge="1" parent="1" source="JPz8NDeNLQ0WTbV580v9-58" target="JPz8NDeNLQ0WTbV580v9-65">
          <mxGeometry width="50" height="50" relative="1" as="geometry">
            <mxPoint x="80" y="329.97999999999996" as="sourcePoint" />
            <mxPoint x="130" y="279.97999999999996" as="targetPoint" />
          </mxGeometry>
        </mxCell>
        <mxCell id="JPz8NDeNLQ0WTbV580v9-68" value="" style="endArrow=classic;html=1;rounded=0;exitX=0;exitY=1;exitDx=0;exitDy=0;entryX=0.25;entryY=1;entryDx=0;entryDy=0;" edge="1" parent="1" source="JPz8NDeNLQ0WTbV580v9-66" target="JPz8NDeNLQ0WTbV580v9-65">
          <mxGeometry width="50" height="50" relative="1" as="geometry">
            <mxPoint x="94" y="283.97999999999996" as="sourcePoint" />
            <mxPoint x="108" y="319.97999999999996" as="targetPoint" />
          </mxGeometry>
        </mxCell>
        <mxCell id="JPz8NDeNLQ0WTbV580v9-69" style="edgeStyle=orthogonalEdgeStyle;rounded=0;orthogonalLoop=1;jettySize=auto;html=1;entryX=0.5;entryY=1;entryDx=0;entryDy=0;" edge="1" parent="1" source="JPz8NDeNLQ0WTbV580v9-70" target="JPz8NDeNLQ0WTbV580v9-72">
          <mxGeometry relative="1" as="geometry" />
        </mxCell>
        <mxCell id="JPz8NDeNLQ0WTbV580v9-70" value="" style="ellipse;whiteSpace=wrap;html=1;aspect=fixed;fillColor=none;" vertex="1" parent="1">
          <mxGeometry x="85" y="349.97999999999996" width="40" height="40" as="geometry" />
        </mxCell>
        <mxCell id="JPz8NDeNLQ0WTbV580v9-71" style="edgeStyle=orthogonalEdgeStyle;rounded=1;orthogonalLoop=1;jettySize=auto;html=1;entryX=1;entryY=0.5;entryDx=0;entryDy=0;curved=0;" edge="1" parent="1" source="JPz8NDeNLQ0WTbV580v9-72" target="JPz8NDeNLQ0WTbV580v9-66">
          <mxGeometry relative="1" as="geometry">
            <Array as="points">
              <mxPoint x="105" y="439.97999999999996" />
              <mxPoint x="179.99999999999997" y="439.97999999999996" />
              <mxPoint x="179.99999999999997" y="259.97999999999996" />
            </Array>
          </mxGeometry>
        </mxCell>
        <mxCell id="JPz8NDeNLQ0WTbV580v9-72" value="" style="rounded=0;whiteSpace=wrap;html=1;fillColor=#000000;rotation=-180;" vertex="1" parent="1">
          <mxGeometry x="90" y="419.97999999999996" width="30" height="10" as="geometry" />
        </mxCell>
        <mxCell id="JPz8NDeNLQ0WTbV580v9-74" value="" style="ellipse;whiteSpace=wrap;html=1;aspect=fixed;fillColor=#000000;" vertex="1" parent="1">
          <mxGeometry x="100" y="364.97999999999996" width="10" height="10" as="geometry" />
        </mxCell>
        <mxCell id="JPz8NDeNLQ0WTbV580v9-75" value="\(p_4\)" style="text;html=1;align=center;verticalAlign=middle;whiteSpace=wrap;rounded=0;" vertex="1" parent="1">
          <mxGeometry x="-50" y="247.48" width="30" height="25" as="geometry" />
        </mxCell>
        <mxCell id="JPz8NDeNLQ0WTbV580v9-76" value="\(t_1\)" style="text;html=1;align=center;verticalAlign=middle;whiteSpace=wrap;rounded=0;" vertex="1" parent="1">
          <mxGeometry x="85" y="192.48" width="30" height="25" as="geometry" />
        </mxCell>
        <mxCell id="JPz8NDeNLQ0WTbV580v9-77" value="\(t_2\)" style="text;html=1;align=center;verticalAlign=middle;whiteSpace=wrap;rounded=0;" vertex="1" parent="1">
          <mxGeometry x="120" y="302.47999999999996" width="30" height="25" as="geometry" />
        </mxCell>
        <mxCell id="JPz8NDeNLQ0WTbV580v9-78" value="\(t_3\)" style="text;html=1;align=center;verticalAlign=middle;whiteSpace=wrap;rounded=0;" vertex="1" parent="1">
          <mxGeometry x="120" y="412.47999999999996" width="30" height="25" as="geometry" />
        </mxCell>
        <mxCell id="JPz8NDeNLQ0WTbV580v9-79" value="\(p_3\)" style="text;html=1;align=center;verticalAlign=middle;whiteSpace=wrap;rounded=0;" vertex="1" parent="1">
          <mxGeometry x="130" y="357.47999999999996" width="30" height="25" as="geometry" />
        </mxCell>
        <mxCell id="JPz8NDeNLQ0WTbV580v9-80" value="\(p_2\)" style="text;html=1;align=center;verticalAlign=middle;whiteSpace=wrap;rounded=0;" vertex="1" parent="1">
          <mxGeometry x="144.99999999999997" y="217.48" width="30" height="25" as="geometry" />
        </mxCell>
        <mxCell id="JPz8NDeNLQ0WTbV580v9-81" value="\(p_1\)" style="text;html=1;align=center;verticalAlign=middle;whiteSpace=wrap;rounded=0;" vertex="1" parent="1">
          <mxGeometry x="30" y="247.48" width="20" height="25" as="geometry" />
        </mxCell>
        <mxCell id="JPz8NDeNLQ0WTbV580v9-82" value="" style="ellipse;whiteSpace=wrap;html=1;aspect=fixed;fillColor=#000000;" vertex="1" parent="1">
          <mxGeometry x="65" y="255" width="10" height="10" as="geometry" />
        </mxCell>
        <mxCell id="JPz8NDeNLQ0WTbV580v9-94" style="edgeStyle=orthogonalEdgeStyle;rounded=0;orthogonalLoop=1;jettySize=auto;html=1;entryX=0.5;entryY=0;entryDx=0;entryDy=0;" edge="1" parent="1" source="JPz8NDeNLQ0WTbV580v9-85" target="JPz8NDeNLQ0WTbV580v9-93">
          <mxGeometry relative="1" as="geometry" />
        </mxCell>
        <mxCell id="JPz8NDeNLQ0WTbV580v9-85" value="\(\begin{bmatrix} 1&amp;amp; 0 &amp;amp; 1 &amp;amp; 0&amp;nbsp; \end{bmatrix}\)" style="text;html=1;align=center;verticalAlign=middle;whiteSpace=wrap;rounded=0;" vertex="1" parent="1">
          <mxGeometry x="510" y="369.98" width="90" height="20" as="geometry" />
        </mxCell>
        <mxCell id="JPz8NDeNLQ0WTbV580v9-86" value="\(\begin{bmatrix} 0&amp;amp; 1 &amp;amp; 0 &amp;amp; 1&amp;nbsp; \end{bmatrix}\)" style="text;html=1;align=center;verticalAlign=middle;whiteSpace=wrap;rounded=0;fontColor=#FF3399;" vertex="1" parent="1">
          <mxGeometry x="610" y="369.98" width="90" height="20" as="geometry" />
        </mxCell>
        <mxCell id="JPz8NDeNLQ0WTbV580v9-87" value="" style="endArrow=classic;html=1;rounded=0;exitX=0.25;exitY=1;exitDx=0;exitDy=0;entryX=0.5;entryY=0;entryDx=0;entryDy=0;" edge="1" parent="1" source="JPz8NDeNLQ0WTbV580v9-32" target="JPz8NDeNLQ0WTbV580v9-85">
          <mxGeometry width="50" height="50" relative="1" as="geometry">
            <mxPoint x="500" y="359.98" as="sourcePoint" />
            <mxPoint x="550" y="309.98" as="targetPoint" />
          </mxGeometry>
        </mxCell>
        <mxCell id="JPz8NDeNLQ0WTbV580v9-88" value="" style="endArrow=classic;html=1;rounded=0;exitX=0.75;exitY=1;exitDx=0;exitDy=0;entryX=0.5;entryY=0;entryDx=0;entryDy=0;" edge="1" parent="1" source="JPz8NDeNLQ0WTbV580v9-32" target="JPz8NDeNLQ0WTbV580v9-86">
          <mxGeometry width="50" height="50" relative="1" as="geometry">
            <mxPoint x="593" y="339.98" as="sourcePoint" />
            <mxPoint x="565" y="379.98" as="targetPoint" />
          </mxGeometry>
        </mxCell>
        <mxCell id="JPz8NDeNLQ0WTbV580v9-89" value="\(t_3\)" style="text;html=1;align=center;verticalAlign=middle;whiteSpace=wrap;rounded=0;" vertex="1" parent="1">
          <mxGeometry x="650" y="329.98" width="30" height="25" as="geometry" />
        </mxCell>
        <mxCell id="JPz8NDeNLQ0WTbV580v9-90" value="\(t_1\)" style="text;html=1;align=center;verticalAlign=middle;whiteSpace=wrap;rounded=0;" vertex="1" parent="1">
          <mxGeometry x="540" y="329.96000000000004" width="30" height="25" as="geometry" />
        </mxCell>
        <mxCell id="JPz8NDeNLQ0WTbV580v9-93" value="\(\begin{bmatrix} 1&amp;amp; 1 &amp;amp; 0 &amp;amp; 0&amp;nbsp; \end{bmatrix}\)" style="text;html=1;align=center;verticalAlign=middle;whiteSpace=wrap;rounded=0;fontColor=#FF3399;" vertex="1" parent="1">
          <mxGeometry x="510" y="429.98" width="90" height="20" as="geometry" />
        </mxCell>
        <mxCell id="JPz8NDeNLQ0WTbV580v9-95" value="\(t_3\)" style="text;html=1;align=center;verticalAlign=middle;whiteSpace=wrap;rounded=0;" vertex="1" parent="1">
          <mxGeometry x="520" y="395" width="30" height="25" as="geometry" />
        </mxCell>
      </root>
    </mxGraphModel>
  </diagram>
</mxfile>
